{
    "asset" : {
        "generator" : "Khronos glTF Blender I/O v1.5.17",
        "version" : "2.0"
    },
    "scene" : 0,
    "scenes" : [
        {
            "name" : "Scene",
            "nodes" : [
                0,
                1,
                3
            ]
        }
    ],
    "nodes" : [
        {
            "name" : "Light",
            "rotation" : [
                0.16907575726509094,
                0.7558803558349609,
                -0.27217137813568115,
                0.570947527885437
            ],
            "translation" : [
                -1.7570605278015137,
                5.903861999511719,
                2.428999900817871
            ]
        },
        {
            "name" : "Camera",
            "rotation" : [
                0.0697769969701767,
                -0.22354067862033844,
                0.016046347096562386,
                0.9720613360404968
            ],
            "translation" : [
                -0.5810314416885376,
                7.724061012268066,
                0.9276231527328491
            ]
        },
        {
            "mesh" : 0,
            "name" : "Handle",
            "rotation" : [
                0,
                0,
                -1,
                0
            ],
            "scale" : [
                -0.8958780169487,
                -6.4840240478515625,
                -0.9755070209503174
            ],
            "translation" : [
                -4.612979412078857,
                0.0069599151611328125,
                -0.2683534026145935
            ]
        },
        {
            "children" : [
                2
            ],
            "mesh" : 1,
            "name" : "Blade",
            "rotation" : [
                0.7199761271476746,
                0,
                0,
                0.6939988136291504
            ],
            "scale" : [
                0.2199190855026245,
                0.008769809268414974,
                -0.08299863338470459
            ],
            "translation" : [
                -0.5558251738548279,
                1.348768711090088,
                -0.1953272819519043
            ]
        }
    ],
    "materials" : [
        {
            "doubleSided" : true,
            "name" : "Handle",
            "pbrMetallicRoughness" : {
                "baseColorTexture" : {
                    "index" : 0
                },
                "metallicFactor" : 0,
                "roughnessFactor" : 0.5
            }
        },
        {
            "doubleSided" : true,
            "name" : "Blade",
            "pbrMetallicRoughness" : {
                "baseColorTexture" : {
                    "index" : 1
                },
                "metallicFactor" : 0,
                "roughnessFactor" : 0.20000000298023224
            }
        }
    ],
    "meshes" : [
        {
            "name" : "Cube.002",
            "primitives" : [
                {
                    "attributes" : {
                        "POSITION" : 0,
                        "NORMAL" : 1,
                        "TEXCOORD_0" : 2
                    },
                    "indices" : 3,
                    "material" : 0
                }
            ]
        },
        {
            "name" : "Cube.003",
            "primitives" : [
                {
                    "attributes" : {
                        "POSITION" : 4,
                        "NORMAL" : 5,
                        "TEXCOORD_0" : 6
                    },
                    "indices" : 7,
                    "material" : 1
                }
            ]
        }
    ],
    "textures" : [
        {
            "sampler" : 0,
            "source" : 0
        },
        {
            "sampler" : 0,
            "source" : 0
        }
    ],
    "images" : [
        {
            "bufferView" : 4,
            "mimeType" : "image/jpeg",
            "name" : "KnifeTexture"
        }
    ],
    "accessors" : [
        {
            "bufferView" : 0,
            "componentType" : 5126,
            "count" : 100,
            "max" : [
                4.146124839782715,
                0.9999999403953552,
                3.632120132446289
            ],
            "min" : [
                -3.963284969329834,
                -0.9999999403953552,
                -1.6223011016845703
            ],
            "type" : "VEC3"
        },
        {
            "bufferView" : 1,
            "componentType" : 5126,
            "count" : 100,
            "type" : "VEC3"
        },
        {
            "bufferView" : 2,
            "componentType" : 5126,
            "count" : 100,
            "type" : "VEC2"
        },
        {
            "bufferView" : 3,
            "componentType" : 5123,
            "count" : 588,
            "type" : "SCALAR"
        },
        {
            "bufferView" : 5,
            "componentType" : 5126,
            "count" : 180,
            "max" : [
                13.467418670654297,
                1,
                1.2868553400039673
            ],
            "min" : [
                -1,
                -1,
                -6.38498592376709
            ],
            "type" : "VEC3"
        },
        {
            "bufferView" : 6,
            "componentType" : 5126,
            "count" : 180,
            "type" : "VEC3"
        },
        {
            "bufferView" : 7,
            "componentType" : 5126,
            "count" : 180,
            "type" : "VEC2"
        },
        {
            "bufferView" : 8,
            "componentType" : 5123,
            "count" : 1068,
            "type" : "SCALAR"
        }
    ],
    "bufferViews" : [
        {
            "buffer" : 0,
            "byteLength" : 1200,
            "byteOffset" : 0
        },
        {
            "buffer" : 0,
            "byteLength" : 1200,
            "byteOffset" : 1200
        },
        {
            "buffer" : 0,
            "byteLength" : 800,
            "byteOffset" : 2400
        },
        {
            "buffer" : 0,
            "byteLength" : 1176,
            "byteOffset" : 3200
        },
        {
            "buffer" : 0,
            "byteLength" : 6699,
            "byteOffset" : 4376
        },
        {
            "buffer" : 0,
            "byteLength" : 2160,
            "byteOffset" : 11076
        },
        {
            "buffer" : 0,
            "byteLength" : 2160,
            "byteOffset" : 13236
        },
        {
            "buffer" : 0,
            "byteLength" : 1440,
            "byteOffset" : 15396
        },
        {
            "buffer" : 0,
            "byteLength" : 2136,
            "byteOffset" : 16836
        }
    ],
    "samplers" : [
        {
            "magFilter" : 9729,
            "minFilter" : 9987
        }
    ],
    "buffers" : [
        {
            "byteLength" : 18972,
            "uri" : "data:application/octet-stream;base64,"
        }
    ]
}
